<svg xmlns="http://www.w3.org/2000/svg" width="60" height="58" fill="none"><mask id="a" width="46" height="58" x="0" y="0" maskUnits="userSpaceOnUse" style="mask-type:luminance"><path fill="#fff" d="M0 28.694c0 21.242 19.1 28.908 28.822 28.908 8.309 0 11.65-2.227 16.36-5.14l-6.638-9.293-2.398 1.842 4.968 6.852c-1.371.728-7.367 3.212-12.42 3.084-12.12-.343-25.054-7.838-26.039-26.682.6-15.16 10.964-24.796 25.696-25.524 6.553.043 10.064 1.499 12.72 3.083l-4.754 7.067 2.27 1.841 6.638-9.593S38.03 0 28.308 0h-.043C18.887 0 .043 7.452 0 28.694Z"/></mask><g mask="url(#a)"><path fill="url(#b)" d="M45.225 0H0v57.602h45.225V0Z"/></g><mask id="c" width="14" height="18" x="15" y="20" maskUnits="userSpaceOnUse" style="mask-type:luminance"><path fill="#fff" d="M18.887 22.655h2.783c2.613 0 3.897 1.028 3.897 3.04 0 2.057-1.284 3.127-3.897 3.127h-2.784v-6.167Zm-2.998-2.612v17.901h2.998v-6.552h3.083c2.056 0 3.683-.514 4.84-1.5 1.156-.984 1.755-2.397 1.755-4.239 0-1.841-.556-3.212-1.713-4.197C25.696 20.471 24.068 20 21.97 20h-6.081v.043Z"/></mask><g mask="url(#c)"><path fill="url(#d)" d="M28.565 20.043H15.89v17.901h12.676V20.043Z"/></g><mask id="e" width="4" height="18" x="36" y="20" maskUnits="userSpaceOnUse" style="mask-type:luminance"><path fill="#fff" d="M39.615 20.043h-2.998v17.901h2.998V20.043Z"/></mask><g mask="url(#e)"><path fill="url(#f)" d="M39.615 20.043h-2.998v17.901h2.998V20.043Z"/></g><mask id="g" width="12" height="18" x="48" y="20" maskUnits="userSpaceOnUse" style="mask-type:luminance"><path fill="#fff" d="M48.993 20.043v17.901H60v-2.612h-7.966v-5.354h7.195v-2.612h-7.195v-4.71H60v-2.613H48.993Z"/></mask><g mask="url(#g)"><path fill="url(#h)" d="M59.957 20.043H48.993v17.901h10.964V20.043Z"/></g><defs><linearGradient id="b" x1=".005" x2="45.233" y1="28.813" y2="28.813" gradientUnits="userSpaceOnUse"><stop stop-color="#9259E7"/><stop offset="1" stop-color="#F46033"/></linearGradient><linearGradient id="d" x1="15.877" x2="59.988" y1="28.987" y2="28.987" gradientUnits="userSpaceOnUse"><stop stop-color="#9259E7"/><stop offset="1" stop-color="#F46033"/></linearGradient><linearGradient id="f" x1="15.877" x2="59.989" y1="28.987" y2="28.987" gradientUnits="userSpaceOnUse"><stop stop-color="#9259E7"/><stop offset="1" stop-color="#F46033"/></linearGradient><linearGradient id="h" x1="15.876" x2="59.988" y1="28.987" y2="28.987" gradientUnits="userSpaceOnUse"><stop stop-color="#9259E7"/><stop offset="1" stop-color="#F46033"/></linearGradient></defs></svg>