<svg width="62" height="65" viewBox="0 0 62 65" fill="none" xmlns="http://www.w3.org/2000/svg">
<g id="Layer_1" clip-path="url(#clip0_721_407)">
<path id="Vector" d="M19.4262 50.3897L17.2629 53.2121L14.3581 51.8181L15.2027 48.3706C15.2851 48.0204 15.1615 47.6564 14.88 47.4367L11.46 44.7241C11.1785 44.5043 10.7939 44.4631 10.478 44.6279L7.35334 46.2143L5.3412 43.7008L7.57309 40.9882C7.79971 40.7135 7.84779 40.329 7.68984 40.0062L5.78758 36.0781C5.62963 35.7553 5.29999 35.5424 4.94976 35.563L1.39246 35.6317L0.671387 32.4933L3.90592 30.9962C4.22868 30.8451 4.4347 30.5224 4.4347 30.1653V25.7976C4.42097 25.4405 4.21495 25.1177 3.89218 24.9667L0.698856 23.5039L1.4062 20.3655L4.90855 20.4205C5.26566 20.4273 5.59529 20.2213 5.74637 19.8985L7.6349 15.9635C7.78598 15.6408 7.74478 15.2562 7.51128 14.9815L5.24505 12.2552L7.24346 9.73484L10.423 11.3281C10.7389 11.486 11.1235 11.4448 11.4051 11.2251L14.8113 8.49871C15.0929 8.27209 15.2165 7.90812 15.1272 7.56475L14.2756 4.1448L17.1737 2.74386L19.3232 5.53201C19.5429 5.81357 19.9069 5.94405 20.2503 5.86164L24.508 4.87961C24.8583 4.7972 25.1261 4.52251 25.2016 4.17227L25.9158 0.724854H29.1366L29.8646 4.1654C29.9401 4.51564 30.2079 4.79033 30.5582 4.86588L34.8159 5.82731C35.1662 5.90285 35.5233 5.77237 35.743 5.49081L37.9063 2.66832L40.8111 4.06239L39.9665 7.50981C39.8841 7.86005 40.0077 8.22402 40.2892 8.44377L43.7092 11.1564C43.9907 11.3761 44.3753 11.4173 44.6912 11.2525L47.8159 9.66617L49.828 12.1796L47.5961 14.8922C47.3695 15.1669 47.3214 15.5515 47.4794 15.8743L49.3816 19.8024C49.5396 20.1252 49.8486 20.3243 50.2194 20.3175L53.7767 20.2488L54.4978 23.3872L51.2633 24.8842" stroke="url(#paint0_linear_721_407)" stroke-width="1.94242" stroke-miterlimit="10"/>
<path id="Vector_2" d="M21.8363 40.528C17.0704 38.3442 13.7466 33.5302 13.7466 27.947C13.7466 20.3174 19.9547 14.1093 27.5843 14.1093C33.5864 14.1093 38.7095 17.955 40.6186 23.3115" stroke="url(#paint1_linear_721_407)" stroke-width="1.94242" stroke-miterlimit="10"/>
<path id="Vector_3" d="M60.7128 32.6303C60.7128 32.6303 60.6991 32.596 60.6991 32.5754C60.6716 32.4998 60.6373 32.4243 60.5961 32.3625C60.5549 32.2938 60.493 32.2389 60.4381 32.1908C60.4244 32.1771 60.4106 32.1633 60.3969 32.1565C60.3351 32.1084 60.2664 32.0672 60.1909 32.0329L42.6791 25.0007C42.4593 24.9114 42.219 24.9114 41.9992 25.0007L24.4806 32.0329C24.405 32.0672 24.3364 32.1084 24.2746 32.1565C24.2608 32.1702 24.2471 32.1771 24.2333 32.1908C24.1715 32.2457 24.1166 32.3007 24.0754 32.3625C24.0342 32.4312 23.9999 32.4998 23.9724 32.5754C23.9724 32.596 23.9587 32.6097 23.9587 32.6303C23.9381 32.7059 23.9243 32.7883 23.9243 32.8707V56C23.9243 56.3708 24.1509 56.7073 24.4874 56.8447L41.9992 64.0691C41.9992 64.0691 42.0404 64.0829 42.0542 64.0897C42.0748 64.0897 42.0954 64.1035 42.1091 64.1103C42.1846 64.1309 42.2671 64.1447 42.3426 64.1447C42.4181 64.1447 42.4937 64.1309 42.5692 64.1103C42.5898 64.1103 42.6104 64.0966 42.631 64.0897C42.6516 64.0897 42.6722 64.0829 42.686 64.0691L60.1978 56.8447C60.5411 56.7004 60.7609 56.3708 60.7609 56V32.8707C60.7609 32.7883 60.7471 32.7059 60.7265 32.6303H60.7128ZM60.7128 32.6303L42.322 40.1089M24.0479 32.3625L42.322 40.1089M42.322 40.1089V64.1447" stroke="url(#paint2_linear_721_407)" stroke-width="1.94242" stroke-miterlimit="10"/>
<path id="Vector_4" d="M48.7287 55.7113C48.8455 55.7113 48.9553 55.6907 49.0721 55.6426L54.9505 53.2802C55.4175 53.0948 55.6441 52.5591 55.4587 52.0922C55.2733 51.6252 54.7377 51.3986 54.2707 51.584L48.3922 53.9463C47.9252 54.1318 47.6986 54.6674 47.884 55.1344C48.0282 55.4915 48.3716 55.7113 48.7356 55.7113H48.7287Z" stroke="url(#paint3_linear_721_407)" stroke-width="1.94242" stroke-miterlimit="10"/>
<path id="Vector_5" d="M29.6925 53.2873L35.5709 55.6497C35.6808 55.6977 35.7976 55.7183 35.9143 55.7183C36.2783 55.7183 36.6216 55.4986 36.7659 55.1415C36.9513 54.6745 36.7247 54.1388 36.2577 53.9534L30.3792 51.5911C29.9122 51.4056 29.3766 51.6323 29.1912 52.0992C29.0057 52.5662 29.2324 53.1019 29.6993 53.2873H29.6925Z" stroke="url(#paint4_linear_721_407)" stroke-width="1.94242" stroke-miterlimit="10"/>
</g>
<defs>
<linearGradient id="paint0_linear_721_407" x1="27.5846" y1="0.724854" x2="27.5846" y2="53.2121" gradientUnits="userSpaceOnUse">
<stop stop-color="#F46033"/>
<stop offset="1" stop-color="#9259E7"/>
</linearGradient>
<linearGradient id="paint1_linear_721_407" x1="27.1826" y1="14.1093" x2="27.1826" y2="40.528" gradientUnits="userSpaceOnUse">
<stop stop-color="#F46033"/>
<stop offset="1" stop-color="#9259E7"/>
</linearGradient>
<linearGradient id="paint2_linear_721_407" x1="42.3426" y1="24.9337" x2="42.3426" y2="64.1447" gradientUnits="userSpaceOnUse">
<stop stop-color="#F46033"/>
<stop offset="1" stop-color="#9259E7"/>
</linearGradient>
<linearGradient id="paint3_linear_721_407" x1="51.6714" y1="51.5193" x2="51.6714" y2="55.7113" gradientUnits="userSpaceOnUse">
<stop stop-color="#F46033"/>
<stop offset="1" stop-color="#9259E7"/>
</linearGradient>
<linearGradient id="paint4_linear_721_407" x1="32.9785" y1="51.5264" x2="32.9785" y2="55.7183" gradientUnits="userSpaceOnUse">
<stop stop-color="#F46033"/>
<stop offset="1" stop-color="#9259E7"/>
</linearGradient>
<clipPath id="clip0_721_407">
<rect width="60.8174" height="64.1" fill="white" transform="translate(0.272949 0.388184)"/>
</clipPath>
</defs>
</svg>
