<svg width="45" height="33" viewBox="0 0 45 33" fill="none" xmlns="http://www.w3.org/2000/svg">
<path id="Vector" d="M12.7222 0.175781H7.83333C3.78957 0.175781 0.5 3.23599 0.5 6.99781V11.5458C0.5 15.3076 3.78957 18.3679 7.83333 18.3679H12.7222C13.5071 18.3679 14.2492 18.2225 14.9587 18.0089C13.9731 23.3648 8.98075 27.4639 2.94444 27.4639C1.59332 27.4639 0.5 28.481 0.5 29.7379C0.5 30.9948 1.59332 32.0119 2.94444 32.0119C12.3785 32.0119 20.0556 24.8702 20.0556 16.0939V6.99781C20.0556 3.23599 16.766 0.175781 12.7222 0.175781ZM37.1667 0.175781H32.2778C28.234 0.175781 24.9444 3.23599 24.9444 6.99781V11.5458C24.9444 15.3076 28.234 18.3679 32.2778 18.3679H37.1667C37.9515 18.3679 38.6936 18.2225 39.4032 18.0089C38.4176 23.3648 33.4252 27.4639 27.3889 27.4639C26.0378 27.4639 24.9444 28.481 24.9444 29.7379C24.9444 30.9948 26.0378 32.0119 27.3889 32.0119C36.823 32.0119 44.5 24.8702 44.5 16.0939V6.99781C44.5 3.23599 41.2104 0.175781 37.1667 0.175781Z" fill="url(#paint0_linear_388_278)"/>
<defs>
<linearGradient id="paint0_linear_388_278" x1="22.5" y1="0.175781" x2="22.5" y2="32.0119" gradientUnits="userSpaceOnUse">
<stop stop-color="#F46033"/>
<stop offset="1" stop-color="#9259E7"/>
</linearGradient>
</defs>
</svg>
