<svg width="51" height="46" viewBox="0 0 51 46" fill="none" xmlns="http://www.w3.org/2000/svg">
<path id="Vector" d="M24.8333 45.6771C25.0254 45.92 25.3869 46.0725 25.7483 45.9652C26.1663 45.8409 25.8952 46.0386 50.7581 13.997C50.9783 13.7146 50.9953 13.3249 50.8032 13.0255L42.8959 0.588421C42.7378 0.345553 42.4723 0.193054 42.1786 0.193054H8.82101C8.53296 0.193054 8.26185 0.339905 8.1037 0.588421L0.196378 13.0255C0.004343 13.3249 0.0212873 13.7146 0.241563 13.997L24.8277 45.6771H24.8333ZM24.0031 1.88748L17.6885 11.958L10.4703 1.88748H24.0031ZM40.648 1.88748L34.3052 11.958L27.1095 1.88748H40.648ZM27.4766 41.2264L34.9886 14.3246H48.352L27.471 41.2264H27.4766ZM2.642 14.3246H17.0672L23.7263 41.4919L2.642 14.3246ZM33.232 14.3246L25.5563 41.8138L18.8181 14.3246H33.2377H33.232ZM19.2643 12.6301L25.545 2.61608L32.7011 12.6301H19.2643ZM35.881 12.6301L42.1843 2.62738L48.544 12.6301H35.881ZM8.86054 2.55396L16.0844 12.6301H2.45561L8.86054 2.55396Z" fill="url(#paint0_linear_468_191)"/>
<defs>
<linearGradient id="paint0_linear_468_191" x1="25.4998" y1="0.193054" x2="25.4998" y2="46.0001" gradientUnits="userSpaceOnUse">
<stop stop-color="#F46033"/>
<stop offset="1" stop-color="#9259E7"/>
</linearGradient>
</defs>
</svg>
