<svg width="77" height="60" viewBox="0 0 77 60" fill="none" xmlns="http://www.w3.org/2000/svg">
<g id="Group 79">
<path id="Vector" fill-rule="evenodd" clip-rule="evenodd" d="M38.4351 -0.00421143C32.2674 -0.00421143 27.2345 5.07802 27.2345 11.2458C27.2345 15.2918 29.3562 18.7951 32.5141 20.8182C25.9516 22.9399 20.7707 28.4662 19.2904 35.5221C19.1424 36.2129 19.5865 36.9037 20.3266 37.0517C21.0174 37.1997 21.7082 36.7557 21.8562 36.0155C23.4845 28.1208 30.4417 22.4958 38.4351 22.4958C46.4286 22.4958 53.3858 28.1208 55.0141 36.0155C55.1621 36.7063 55.8529 37.1504 56.5437 37.0517C57.2345 36.9037 57.6786 36.2129 57.5799 35.5221C56.0996 28.4168 50.9187 22.9399 44.3562 20.8182C47.5141 18.8445 49.6851 15.2918 49.6851 11.2458C49.6358 5.07802 44.6029 -0.00421143 38.4351 -0.00421143ZM38.4351 2.61092C43.172 2.61092 47.0207 6.4596 47.0207 11.2458C47.0207 16.032 43.172 19.8807 38.4351 19.8807C33.6983 19.8807 29.8496 16.032 29.8496 11.2458C29.8496 6.4596 33.6983 2.61092 38.4351 2.61092ZM38.4351 28.5155C37.9417 28.5155 37.4976 28.8116 37.2509 29.2557L34.1424 35.6208L27.1358 36.657C26.445 36.7557 25.9516 37.4464 26.0503 38.1372C26.0503 38.4333 26.2476 38.68 26.445 38.8774L31.5272 43.8609L30.343 50.8675C30.2444 51.5583 30.6884 52.2491 31.4286 52.3971C31.7246 52.3971 32.0207 52.3971 32.2674 52.2491L38.5338 48.9432L44.8003 52.2491C45.4417 52.5945 46.2312 52.3478 46.5766 51.7063C46.7246 51.4596 46.774 51.1636 46.7246 50.8675L45.5404 43.8609L50.6226 38.8774C51.1161 38.3839 51.1654 37.5451 50.6226 37.0024C50.4253 36.805 50.1786 36.657 49.8825 36.6076L42.8759 35.5714L39.7674 29.2063C39.57 28.7622 39.0766 28.4662 38.5832 28.4662L38.4351 28.5155ZM38.4351 32.7589L40.7049 37.3478C40.9022 37.7425 41.2476 37.9892 41.6917 38.0879L46.774 38.828L43.1226 42.43C42.8266 42.7261 42.6786 43.1701 42.7279 43.6142L43.6161 48.6964L39.0766 46.2787C38.6819 46.0813 38.2378 46.0813 37.843 46.2787L33.3036 48.6471L34.1917 43.5649C34.2411 43.1208 34.1424 42.7261 33.797 42.43L30.1457 38.828L35.2279 38.0879C35.672 38.0385 36.0174 37.7425 36.2147 37.3478L38.4845 32.7589H38.4351ZM12.9746 36.1142C12.4812 36.1142 12.0371 36.4103 11.7904 36.8543L8.63251 43.2195L1.62593 44.2557C0.935143 44.3543 0.441722 45.0451 0.540406 45.7359C0.540406 46.032 0.737775 46.2787 0.935143 46.4761L6.01738 51.4596L4.83317 58.4662C4.73448 59.157 5.17856 59.8478 5.9187 59.9958C6.21475 59.9958 6.5108 59.9958 6.75751 59.8478L13.024 56.5418L19.2904 59.8478C19.9319 60.1932 20.7213 59.9464 21.0667 59.305C21.2147 59.0583 21.2641 58.7622 21.2147 58.4662L20.0305 51.4596L25.1128 46.4761C25.6062 45.9826 25.6555 45.1438 25.1128 44.6011C24.9154 44.4037 24.6687 44.2557 24.3726 44.2063L17.3661 43.1701L14.2575 36.805C14.0601 36.3609 13.5667 36.0649 13.0733 36.0649L12.9746 36.1142ZM63.8957 36.1142C63.4022 36.1142 62.9582 36.4103 62.7115 36.8543L59.6029 43.2195L52.5963 44.2557C51.9055 44.3543 51.4121 45.0451 51.5108 45.7359C51.5108 46.032 51.7082 46.2787 51.9055 46.4761L56.9878 51.4596L55.8036 58.4662C55.7049 59.157 56.149 59.8478 56.8891 59.9958C57.1851 59.9958 57.4812 59.9958 57.7279 59.8478L63.9944 56.5418L70.2608 59.8478C70.9022 60.1932 71.6917 59.9464 72.0371 59.305C72.1851 59.0583 72.2345 58.7622 72.1851 58.4662L71.0009 51.4596L76.0832 46.4761C76.5766 45.9826 76.6259 45.1438 76.0832 44.6011C75.8858 44.4037 75.6391 44.2557 75.343 44.2063L68.3365 43.1701L65.2279 36.805C65.0305 36.3609 64.5371 36.0649 64.0437 36.0649L63.8957 36.1142ZM12.9746 40.3576L15.2444 44.9464C15.4417 45.3412 15.7871 45.5879 16.2312 45.6866L21.3134 46.4267L17.6621 50.0287C17.3661 50.3247 17.218 50.7688 17.2674 51.2129L18.1555 56.2951L13.6161 53.8774C13.2213 53.68 12.7772 53.68 12.3825 53.8774L7.84304 56.2458L8.7312 51.1635C8.78054 50.7195 8.68185 50.3247 8.33646 50.0287L4.68514 46.4267L9.76738 45.6866C10.2115 45.6372 10.5569 45.3412 10.7542 44.9464L13.024 40.3576H12.9746ZM63.8957 40.3576L66.1654 44.9464C66.3628 45.3412 66.7082 45.5879 67.1522 45.6866L72.2345 46.4267L68.5832 50.0287C68.2871 50.3247 68.1391 50.7688 68.1884 51.2129L69.0766 56.2951L64.5371 53.8774C64.1424 53.6307 63.649 53.4826 63.3036 53.8774L58.7641 56.2458L59.6522 51.1635C59.7016 50.7195 59.6029 50.3247 59.2575 50.0287L55.6062 46.4267L60.6884 45.6866C61.1325 45.6372 61.4779 45.3412 61.6753 44.9464L63.945 40.3576H63.8957Z" fill="url(#paint0_linear_468_256)"/>
</g>
<defs>
<linearGradient id="paint0_linear_468_256" x1="38.4999" y1="-0.00421143" x2="38.4999" y2="60.0042" gradientUnits="userSpaceOnUse">
<stop stop-color="#F46033"/>
<stop offset="1" stop-color="#9259E7"/>
</linearGradient>
</defs>
</svg>
