<svg width="53" height="50" viewBox="0 0 53 50" fill="none" xmlns="http://www.w3.org/2000/svg">
<g id="Group 79">
<g id="Group 83">
<path id="Vector" d="M18.8865 0.00695801C18.8084 0.00695801 18.738 0.0147706 18.6599 0.0147706C18.6443 0.0147706 18.6287 0.00695801 18.6052 0.00695801C15.0974 0.00695801 12.2301 2.79606 11.9879 6.31173C11.5739 6.2336 11.1598 6.18673 10.7379 6.18673C6.97226 6.18673 3.90972 9.31177 3.90972 13.1556C3.90972 14.9134 4.54254 16.5541 5.65193 17.8119C5.22223 17.9056 4.81598 18.0384 4.41754 18.2103C1.97219 19.2103 0.237793 21.6479 0.237793 24.4995C0.237793 24.5073 0.237793 24.5151 0.237793 24.5229C0.237793 24.562 0.237793 24.5932 0.237793 24.6323C0.237793 27.9683 2.54251 30.7574 5.61286 31.4371C4.5191 32.6871 3.9019 34.3199 3.9019 36.0465C3.9019 39.8903 6.96445 43.0153 10.7301 43.0153C11.1754 43.0153 11.6208 42.9685 12.0505 42.8825C12.0505 42.9294 12.0505 42.9841 12.0505 43.031C12.0505 46.8748 15.113 49.9998 18.8787 49.9998C22.6443 49.9998 25.7069 46.8748 25.7069 43.031V7.42893C25.7069 3.47575 22.5193 0.00695801 18.8787 0.00695801H18.8865ZM24.1522 43.031C24.1522 46.0154 21.7928 48.4373 18.8865 48.4373C15.9802 48.4373 13.6208 46.0154 13.6208 43.031C13.6208 42.6716 13.6442 42.5935 13.738 42.32C13.7692 42.2263 13.8005 42.1169 13.8395 41.9919C15.863 40.8278 17.238 38.6168 17.238 36.0856C17.238 35.6559 16.8865 35.3043 16.4568 35.3043C16.0271 35.3043 15.6755 35.6559 15.6755 36.0856C15.6755 38.9606 13.3942 41.2966 10.5973 41.2966C7.80039 41.2966 5.51911 38.9606 5.51911 36.0856C5.51911 36.0153 5.49568 35.9528 5.48005 35.8903C5.52693 34.0699 6.44881 32.4136 7.97227 31.4449C8.27696 31.2496 8.40978 30.8746 8.29259 30.5386C8.1754 30.2027 7.84727 29.9683 7.48789 30.0074C7.34726 30.0152 7.21445 30.0308 7.07382 30.0308C4.16753 30.0308 1.80813 27.6089 1.80813 24.6245C1.80813 22.4057 3.12064 20.4916 4.99567 19.6635C5.58161 19.4213 6.22225 19.2807 6.88632 19.2807C9.68323 19.2807 11.9645 21.6166 11.9645 24.4917C11.9645 24.9214 12.3161 25.2729 12.7458 25.2729C13.1755 25.2729 13.527 24.9214 13.527 24.4917C13.527 21.1791 11.1833 18.4213 8.10509 17.8353C8.08946 17.8275 8.08165 17.8119 8.05821 17.7963C6.441 16.8119 5.47224 15.0697 5.47224 13.1556C5.47224 10.1712 7.83164 7.74925 10.7379 7.74925C11.1833 7.74925 11.6286 7.82737 12.0661 7.95238C12.613 11.1321 15.3317 13.5618 18.6052 13.5618C19.0349 13.5618 19.3865 13.2103 19.3865 12.7806C19.3865 12.3509 19.0349 11.9993 18.6052 11.9993C16.0583 11.9993 13.9489 10.0618 13.5895 7.55393C13.6208 7.45237 13.6364 7.34299 13.6364 7.24143C13.6364 7.15549 13.6208 7.06955 13.6208 6.9758C13.6208 3.99139 15.9802 1.56948 18.8865 1.56948C21.7928 1.56948 24.1522 4.3117 24.1522 7.42893V43.031Z" fill="url(#paint0_linear_468_247)"/>
<path id="Vector_2" d="M52.7621 24.4926C52.7621 21.641 51.0277 19.2035 48.5823 18.2035C48.1917 18.0316 47.7776 17.8988 47.3479 17.805C48.4651 16.5472 49.0901 14.9066 49.0901 13.1487C49.0901 9.30493 46.0276 6.17989 42.2619 6.17989C41.8088 6.17989 41.3635 6.22677 40.9182 6.32052C40.5978 2.78141 37.6681 0.00012207 34.1212 0.00012207C30.5743 0.00012207 27.293 3.46892 27.293 7.42209V43.0241C27.293 46.8679 30.3555 49.993 34.1212 49.993C37.8869 49.993 40.9494 46.8679 40.9494 43.0241C40.9494 42.9694 40.9494 42.9226 40.9494 42.8757C41.3791 42.9616 41.8244 43.0085 42.2697 43.0085C46.0354 43.0085 49.0979 39.8835 49.0979 36.0397C49.0979 34.3053 48.4808 32.688 47.387 31.4302C50.4573 30.7505 52.7621 27.9536 52.7621 24.6254C52.7621 24.5864 52.7621 24.5551 52.7621 24.5161C52.7621 24.5161 52.7621 24.5004 52.7621 24.4926ZM34.1212 43.0007C33.254 43.0007 32.5509 42.2976 32.5509 41.4304C32.5509 40.5632 33.254 39.86 34.1212 39.86C34.9884 39.86 35.6915 40.5632 35.6915 41.4304C35.6915 42.2976 34.9884 43.0007 34.1212 43.0007ZM42.301 37.1803C41.4338 37.1803 40.7306 36.4772 40.7306 35.61C40.7306 34.7428 41.4338 34.0396 42.301 34.0396C43.1682 34.0396 43.8713 34.7428 43.8713 35.61C43.8713 36.4772 43.1682 37.1803 42.301 37.1803ZM45.9338 30.0318C45.7932 30.0318 45.6526 30.024 45.5198 30.0083C45.1604 29.9771 44.8245 30.1958 44.7151 30.5396C44.6057 30.8833 44.7307 31.2583 45.0354 31.4458C46.6057 32.438 47.5432 34.1568 47.5432 36.0397C47.5432 38.735 45.6057 40.9694 43.0901 41.3757V38.6334C44.4416 38.2819 45.4417 37.0709 45.4417 35.61C45.4417 33.8834 44.0354 32.4771 42.3088 32.4771C40.5822 32.4771 39.1759 33.8834 39.1759 35.61C39.1759 37.0631 40.176 38.2819 41.5275 38.6334V41.3835C41.0822 41.321 40.6447 41.2038 40.2228 41.0163C39.9416 40.8991 39.6213 40.946 39.3947 41.1491C39.1681 41.3522 39.0822 41.6647 39.1681 41.9616C39.215 42.1022 39.2463 42.2194 39.2853 42.321C39.3791 42.6022 39.4025 42.6726 39.4025 43.0319C39.4025 45.7429 37.4494 47.9851 34.9181 48.3679V44.4538C36.2697 44.1023 37.2697 42.8913 37.2697 41.4304C37.2697 39.7038 35.8634 38.2975 34.1368 38.2975C32.4102 38.2975 31.004 39.7038 31.004 41.4304C31.004 42.8835 32.004 44.1023 33.3556 44.4538V48.3679C30.8243 47.9773 28.8711 45.7351 28.8711 43.0319V26.9692H31.1133C31.4649 28.3208 32.6837 29.3208 34.1368 29.3208C35.8634 29.3208 37.2697 27.9145 37.2697 26.188C37.2697 24.4614 35.8634 23.0551 34.1368 23.0551C32.6837 23.0551 31.4649 24.0551 31.1133 25.4067H28.8633V14.7738H38.4962C38.8478 16.1253 40.0588 17.1253 41.5197 17.1253C43.2463 17.1253 44.6526 15.7191 44.6526 13.9925C44.6526 12.2659 43.2463 10.8596 41.5197 10.8596C40.0666 10.8596 38.8478 11.8597 38.4962 13.2112H35.9415V10.1018C37.2931 9.75025 38.2931 8.5393 38.2931 7.07834C38.2931 5.35176 36.8868 3.94549 35.1603 3.94549C33.4337 3.94549 32.0274 5.35176 32.0274 7.07834C32.0274 8.53148 33.0274 9.75025 34.379 10.1018V13.2112H28.8633V7.42991C28.8633 4.30487 31.3243 1.57046 34.129 1.57046C36.9337 1.57046 39.3947 3.99236 39.3947 6.97678C39.3947 7.06272 39.3947 7.15647 39.3791 7.31272C39.3634 7.57835 39.4806 7.83616 39.6916 7.99241C39.9025 8.14867 40.1838 8.18773 40.4338 8.09398C41.0353 7.86741 41.6525 7.75022 42.2697 7.75022C45.176 7.75022 47.5354 10.1721 47.5354 13.1565C47.5354 15.0784 46.5667 16.8128 44.9495 17.7972C44.9338 17.805 44.9182 17.8207 44.9026 17.8363C41.8166 18.4222 39.4806 21.1801 39.4806 24.4926C39.4806 24.9223 39.8322 25.2739 40.2619 25.2739C40.6916 25.2739 41.0432 24.9223 41.0432 24.4926C41.0432 21.6176 43.3244 19.2816 46.1213 19.2816C46.7932 19.2816 47.4261 19.4144 48.012 19.6644C49.8792 20.4926 51.1995 22.4067 51.1995 24.6254C51.1995 27.602 48.8401 30.0318 45.9338 30.0318ZM32.5509 26.188C32.5509 25.3208 33.254 24.6176 34.1212 24.6176C34.9884 24.6176 35.6915 25.3208 35.6915 26.188C35.6915 27.0552 34.9884 27.7583 34.1212 27.7583C33.254 27.7583 32.5509 27.0552 32.5509 26.188ZM35.1446 8.64867C34.2774 8.64867 33.5743 7.94554 33.5743 7.07834C33.5743 6.21114 34.2774 5.50801 35.1446 5.50801C36.0118 5.50801 36.715 6.21114 36.715 7.07834C36.715 7.94554 36.0118 8.64867 35.1446 8.64867ZM39.9338 13.9925C39.9338 13.1253 40.6369 12.4222 41.5041 12.4222C42.3713 12.4222 43.0744 13.1253 43.0744 13.9925C43.0744 14.8597 42.3713 15.5628 41.5041 15.5628C40.6369 15.5628 39.9338 14.8597 39.9338 13.9925Z" fill="url(#paint1_linear_468_247)"/>
</g>
</g>
<defs>
<linearGradient id="paint0_linear_468_247" x1="12.9723" y1="0.00695801" x2="12.9723" y2="49.9998" gradientUnits="userSpaceOnUse">
<stop stop-color="#F46033"/>
<stop offset="1" stop-color="#9259E7"/>
</linearGradient>
<linearGradient id="paint1_linear_468_247" x1="40.0275" y1="0.00012207" x2="40.0275" y2="49.993" gradientUnits="userSpaceOnUse">
<stop stop-color="#F46033"/>
<stop offset="1" stop-color="#9259E7"/>
</linearGradient>
</defs>
</svg>
